solid ascii 
facet normal 0.83 0.44 0.35 
outer loop
vertex 0.8569 -0.2922 -1.2410 
vertex 0.9643 -0.4892 -1.2499 
vertex 1.1179 -0.1805 -2.0000 
endloop
endfacet
facet normal 0.92 0.25 0.29 
outer loop
vertex 0.9643 -0.4892 -1.2499 
vertex 1.1573 -0.3279 -2.0000 
vertex 1.1179 -0.1805 -2.0000 
endloop
endfacet
facet normal 0.90 0.22 0.37 
outer loop
vertex 0.7778 0.0000 -1.2222 
vertex 0.8569 -0.2922 -1.2410 
vertex 1.1000 0.0000 -2.0000 
endloop
endfacet
facet normal 0.94 0.09 0.34 
outer loop
vertex 0.8569 -0.2922 -1.2410 
vertex 1.1179 -0.1805 -2.0000 
vertex 1.1000 0.0000 -2.0000 
endloop
endfacet
facet normal 0.49 0.49 0.73 
outer loop
vertex 0.5189 -0.4239 -0.9259 
vertex 0.7609 -0.6533 -0.9351 
vertex 0.8569 -0.2922 -1.2410 
endloop
endfacet
facet normal 0.69 0.35 0.63 
outer loop
vertex 0.7609 -0.6533 -0.9351 
vertex 0.9643 -0.4892 -1.2499 
vertex 0.8569 -0.2922 -1.2410 
endloop
endfacet
facet normal 0.35 0.38 0.85 
outer loop
vertex 0.0000 0.0000 -0.9000 
vertex 0.5189 -0.4239 -0.9259 
vertex 0.7778 0.0000 -1.2222 
endloop
endfacet
facet normal 0.65 0.13 0.75 
outer loop
vertex 0.5189 -0.4239 -0.9259 
vertex 0.8569 -0.2922 -1.2410 
vertex 0.7778 0.0000 -1.2222 
endloop
endfacet
facet normal 0.90 -0.22 0.37 
outer loop
vertex 0.8569 0.2922 -1.2410 
vertex 0.7778 0.0000 -1.2222 
vertex 1.1000 0.0000 -2.0000 
endloop
endfacet
facet normal 0.94 -0.09 0.34 
outer loop
vertex 0.8569 0.2922 -1.2410 
vertex 1.1000 0.0000 -2.0000 
vertex 1.1179 0.1805 -2.0000 
endloop
endfacet
facet normal 0.83 -0.44 0.35 
outer loop
vertex 0.9643 0.4892 -1.2499 
vertex 0.8569 0.2922 -1.2410 
vertex 1.1179 0.1805 -2.0000 
endloop
endfacet
facet normal 0.92 -0.25 0.29 
outer loop
vertex 0.9643 0.4892 -1.2499 
vertex 1.1179 0.1805 -2.0000 
vertex 1.1573 0.3279 -2.0000 
endloop
endfacet
facet normal 0.35 -0.38 0.85 
outer loop
vertex 0.5189 0.4239 -0.9259 
vertex 0.0000 0.0000 -0.9000 
vertex 0.7778 0.0000 -1.2222 
endloop
endfacet
facet normal 0.65 -0.13 0.75 
outer loop
vertex 0.5189 0.4239 -0.9259 
vertex 0.7778 0.0000 -1.2222 
vertex 0.8569 0.2922 -1.2410 
endloop
endfacet
facet normal 0.49 -0.49 0.73 
outer loop
vertex 0.7609 0.6533 -0.9351 
vertex 0.5189 0.4239 -0.9259 
vertex 0.8569 0.2922 -1.2410 
endloop
endfacet
facet normal 0.69 -0.35 0.63 
outer loop
vertex 0.7609 0.6533 -0.9351 
vertex 0.8569 0.2922 -1.2410 
vertex 0.9643 0.4892 -1.2499 
endloop
endfacet
facet normal 0.50 -0.85 -0.13 
outer loop
vertex 0.8035 -0.5715 -1.3359 
vertex 0.9640 -0.3792 -2.0000 
vertex 0.9643 -0.4892 -1.2499 
endloop
endfacet
facet normal 0.25 -0.96 -0.14 
outer loop
vertex 0.9640 -0.3792 -2.0000 
vertex 1.1573 -0.3279 -2.0000 
vertex 0.9643 -0.4892 -1.2499 
endloop
endfacet
facet normal 0.74 -0.67 -0.06 
outer loop
vertex 0.6533 -0.7609 -1.0649 
vertex 0.8035 -0.5715 -1.3359 
vertex 0.7609 -0.6533 -0.9351 
endloop
endfacet
facet normal 0.50 -0.86 -0.12 
outer loop
vertex 0.8035 -0.5715 -1.3359 
vertex 0.9643 -0.4892 -1.2499 
vertex 0.7609 -0.6533 -0.9351 
endloop
endfacet
facet normal 0.48 0.87 -0.06 
outer loop
vertex 0.9643 0.4892 -1.2499 
vertex 1.1573 0.3279 -2.0000 
vertex 0.8035 0.5715 -1.3359 
endloop
endfacet
facet normal 0.25 0.94 -0.21 
outer loop
vertex 1.1573 0.3279 -2.0000 
vertex 0.9640 0.3792 -2.0000 
vertex 0.8035 0.5715 -1.3359 
endloop
endfacet
facet normal 0.67 0.74 0.05 
outer loop
vertex 0.7609 0.6533 -0.9351 
vertex 0.9643 0.4892 -1.2499 
vertex 0.6533 0.7609 -1.0649 
endloop
endfacet
facet normal 0.55 0.80 -0.26 
outer loop
vertex 0.9643 0.4892 -1.2499 
vertex 0.8035 0.5715 -1.3359 
vertex 0.6533 0.7609 -1.0649 
endloop
endfacet
facet normal 0.00 0.00 -1.00 
outer loop
vertex 1.1179 -0.1805 -2.0000 
vertex 1.1573 -0.3279 -2.0000 
vertex 0.9207 -0.2144 -2.0000 
endloop
endfacet
facet normal 0.00 0.00 -1.00 
outer loop
vertex 1.1573 -0.3279 -2.0000 
vertex 0.9640 -0.3792 -2.0000 
vertex 0.9207 -0.2144 -2.0000 
endloop
endfacet
facet normal 0.00 0.00 -1.00 
outer loop
vertex 1.1000 0.0000 -2.0000 
vertex 1.1179 -0.1805 -2.0000 
vertex 0.9000 0.0000 -2.0000 
endloop
endfacet
facet normal 0.00 0.00 -1.00 
outer loop
vertex 1.1179 -0.1805 -2.0000 
vertex 0.9207 -0.2144 -2.0000 
vertex 0.9000 0.0000 -2.0000 
endloop
endfacet
facet normal 0.00 0.00 -1.00 
outer loop
vertex 1.1179 0.1805 -2.0000 
vertex 1.1000 0.0000 -2.0000 
vertex 0.9207 0.2144 -2.0000 
endloop
endfacet
facet normal 0.00 0.00 -1.00 
outer loop
vertex 1.1000 0.0000 -2.0000 
vertex 0.9000 0.0000 -2.0000 
vertex 0.9207 0.2144 -2.0000 
endloop
endfacet
facet normal 0.00 0.00 -1.00 
outer loop
vertex 1.1573 0.3279 -2.0000 
vertex 1.1179 0.1805 -2.0000 
vertex 0.9640 0.3792 -2.0000 
endloop
endfacet
facet normal 0.00 0.00 -1.00 
outer loop
vertex 1.1179 0.1805 -2.0000 
vertex 0.9207 0.2144 -2.0000 
vertex 0.9640 0.3792 -2.0000 
endloop
endfacet
facet normal -0.92 -0.24 -0.29 
outer loop
vertex 0.9207 -0.2144 -2.0000 
vertex 0.9640 -0.3792 -2.0000 
vertex 0.8035 -0.5715 -1.3359 
endloop
endfacet
facet normal -0.83 -0.42 -0.37 
outer loop
vertex 0.9207 -0.2144 -2.0000 
vertex 0.8035 -0.5715 -1.3359 
vertex 0.6947 -0.3462 -1.3447 
endloop
endfacet
facet normal -0.94 -0.09 -0.34 
outer loop
vertex 0.9000 0.0000 -2.0000 
vertex 0.9207 -0.2144 -2.0000 
vertex 0.6947 -0.3462 -1.3447 
endloop
endfacet
facet normal -0.91 -0.17 -0.38 
outer loop
vertex 0.9000 0.0000 -2.0000 
vertex 0.6947 -0.3462 -1.3447 
vertex 0.6364 0.0000 -1.3636 
endloop
endfacet
facet normal -0.69 -0.36 -0.63 
outer loop
vertex 0.6947 -0.3462 -1.3447 
vertex 0.8035 -0.5715 -1.3359 
vertex 0.6533 -0.7609 -1.0649 
endloop
endfacet
facet normal -0.46 -0.46 -0.76 
outer loop
vertex 0.6947 -0.3462 -1.3447 
vertex 0.6533 -0.7609 -1.0649 
vertex 0.4239 -0.5189 -1.0741 
endloop
endfacet
facet normal -0.65 -0.15 -0.75 
outer loop
vertex 0.6364 0.0000 -1.3636 
vertex 0.6947 -0.3462 -1.3447 
vertex 0.4239 -0.5189 -1.0741 
endloop
endfacet
facet normal -0.36 -0.34 -0.87 
outer loop
vertex 0.6364 0.0000 -1.3636 
vertex 0.4239 -0.5189 -1.0741 
vertex 0.0000 0.0000 -1.1000 
endloop
endfacet
facet normal -0.94 0.09 -0.34 
outer loop
vertex 0.9207 0.2144 -2.0000 
vertex 0.9000 0.0000 -2.0000 
vertex 0.6947 0.3462 -1.3447 
endloop
endfacet
facet normal -0.91 0.17 -0.38 
outer loop
vertex 0.9000 0.0000 -2.0000 
vertex 0.6364 0.0000 -1.3636 
vertex 0.6947 0.3462 -1.3447 
endloop
endfacet
facet normal -0.92 0.24 -0.29 
outer loop
vertex 0.9640 0.3792 -2.0000 
vertex 0.9207 0.2144 -2.0000 
vertex 0.8035 0.5715 -1.3359 
endloop
endfacet
facet normal -0.83 0.42 -0.37 
outer loop
vertex 0.9207 0.2144 -2.0000 
vertex 0.6947 0.3462 -1.3447 
vertex 0.8035 0.5715 -1.3359 
endloop
endfacet
facet normal -0.65 0.15 -0.75 
outer loop
vertex 0.6947 0.3462 -1.3447 
vertex 0.6364 0.0000 -1.3636 
vertex 0.4239 0.5189 -1.0741 
endloop
endfacet
facet normal -0.36 0.34 -0.87 
outer loop
vertex 0.6364 0.0000 -1.3636 
vertex 0.0000 0.0000 -1.1000 
vertex 0.4239 0.5189 -1.0741 
endloop
endfacet
facet normal -0.69 0.36 -0.63 
outer loop
vertex 0.8035 0.5715 -1.3359 
vertex 0.6947 0.3462 -1.3447 
vertex 0.6533 0.7609 -1.0649 
endloop
endfacet
facet normal -0.46 0.46 -0.76 
outer loop
vertex 0.6947 0.3462 -1.3447 
vertex 0.4239 0.5189 -1.0741 
vertex 0.6533 0.7609 -1.0649 
endloop
endfacet
facet normal -0.83 -0.44 0.35 
outer loop
vertex -0.8569 0.2922 -1.2410 
vertex -0.9643 0.4892 -1.2499 
vertex -1.1179 0.1805 -2.0000 
endloop
endfacet
facet normal -0.92 -0.25 0.29 
outer loop
vertex -0.9643 0.4892 -1.2499 
vertex -1.1573 0.3279 -2.0000 
vertex -1.1179 0.1805 -2.0000 
endloop
endfacet
facet normal -0.90 -0.22 0.37 
outer loop
vertex -0.7778 0.0000 -1.2222 
vertex -0.8569 0.2922 -1.2410 
vertex -1.1000 0.0000 -2.0000 
endloop
endfacet
facet normal -0.94 -0.09 0.34 
outer loop
vertex -0.8569 0.2922 -1.2410 
vertex -1.1179 0.1805 -2.0000 
vertex -1.1000 0.0000 -2.0000 
endloop
endfacet
facet normal -0.49 -0.49 0.73 
outer loop
vertex -0.5189 0.4239 -0.9259 
vertex -0.7609 0.6533 -0.9351 
vertex -0.8569 0.2922 -1.2410 
endloop
endfacet
facet normal -0.69 -0.35 0.63 
outer loop
vertex -0.7609 0.6533 -0.9351 
vertex -0.9643 0.4892 -1.2499 
vertex -0.8569 0.2922 -1.2410 
endloop
endfacet
facet normal -0.35 -0.38 0.85 
outer loop
vertex 0.0000 0.0000 -0.9000 
vertex -0.5189 0.4239 -0.9259 
vertex -0.7778 0.0000 -1.2222 
endloop
endfacet
facet normal -0.65 -0.13 0.75 
outer loop
vertex -0.5189 0.4239 -0.9259 
vertex -0.8569 0.2922 -1.2410 
vertex -0.7778 0.0000 -1.2222 
endloop
endfacet
facet normal -0.90 0.22 0.37 
outer loop
vertex -0.8569 -0.2922 -1.2410 
vertex -0.7778 0.0000 -1.2222 
vertex -1.1000 0.0000 -2.0000 
endloop
endfacet
facet normal -0.94 0.09 0.34 
outer loop
vertex -0.8569 -0.2922 -1.2410 
vertex -1.1000 0.0000 -2.0000 
vertex -1.1179 -0.1805 -2.0000 
endloop
endfacet
facet normal -0.83 0.44 0.35 
outer loop
vertex -0.9643 -0.4892 -1.2499 
vertex -0.8569 -0.2922 -1.2410 
vertex -1.1179 -0.1805 -2.0000 
endloop
endfacet
facet normal -0.92 0.25 0.29 
outer loop
vertex -0.9643 -0.4892 -1.2499 
vertex -1.1179 -0.1805 -2.0000 
vertex -1.1573 -0.3279 -2.0000 
endloop
endfacet
facet normal -0.35 0.38 0.85 
outer loop
vertex -0.5189 -0.4239 -0.9259 
vertex 0.0000 0.0000 -0.9000 
vertex -0.7778 0.0000 -1.2222 
endloop
endfacet
facet normal -0.65 0.13 0.75 
outer loop
vertex -0.5189 -0.4239 -0.9259 
vertex -0.7778 0.0000 -1.2222 
vertex -0.8569 -0.2922 -1.2410 
endloop
endfacet
facet normal -0.49 0.49 0.73 
outer loop
vertex -0.7609 -0.6533 -0.9351 
vertex -0.5189 -0.4239 -0.9259 
vertex -0.8569 -0.2922 -1.2410 
endloop
endfacet
facet normal -0.69 0.35 0.63 
outer loop
vertex -0.7609 -0.6533 -0.9351 
vertex -0.8569 -0.2922 -1.2410 
vertex -0.9643 -0.4892 -1.2499 
endloop
endfacet
facet normal -0.50 0.85 -0.13 
outer loop
vertex -0.8035 0.5715 -1.3359 
vertex -0.9640 0.3792 -2.0000 
vertex -0.9643 0.4892 -1.2499 
endloop
endfacet
facet normal -0.25 0.96 -0.14 
outer loop
vertex -0.9640 0.3792 -2.0000 
vertex -1.1573 0.3279 -2.0000 
vertex -0.9643 0.4892 -1.2499 
endloop
endfacet
facet normal -0.74 0.67 -0.06 
outer loop
vertex -0.6533 0.7609 -1.0649 
vertex -0.8035 0.5715 -1.3359 
vertex -0.7609 0.6533 -0.9351 
endloop
endfacet
facet normal -0.50 0.86 -0.12 
outer loop
vertex -0.8035 0.5715 -1.3359 
vertex -0.9643 0.4892 -1.2499 
vertex -0.7609 0.6533 -0.9351 
endloop
endfacet
facet normal -0.48 -0.87 -0.06 
outer loop
vertex -0.9643 -0.4892 -1.2499 
vertex -1.1573 -0.3279 -2.0000 
vertex -0.8035 -0.5715 -1.3359 
endloop
endfacet
facet normal -0.25 -0.94 -0.21 
outer loop
vertex -1.1573 -0.3279 -2.0000 
vertex -0.9640 -0.3792 -2.0000 
vertex -0.8035 -0.5715 -1.3359 
endloop
endfacet
facet normal -0.67 -0.74 0.05 
outer loop
vertex -0.7609 -0.6533 -0.9351 
vertex -0.9643 -0.4892 -1.2499 
vertex -0.6533 -0.7609 -1.0649 
endloop
endfacet
facet normal -0.55 -0.80 -0.26 
outer loop
vertex -0.9643 -0.4892 -1.2499 
vertex -0.8035 -0.5715 -1.3359 
vertex -0.6533 -0.7609 -1.0649 
endloop
endfacet
facet normal 0.00 0.00 -1.00 
outer loop
vertex -1.1179 0.1805 -2.0000 
vertex -1.1573 0.3279 -2.0000 
vertex -0.9207 0.2144 -2.0000 
endloop
endfacet
facet normal 0.00 0.00 -1.00 
outer loop
vertex -1.1573 0.3279 -2.0000 
vertex -0.9640 0.3792 -2.0000 
vertex -0.9207 0.2144 -2.0000 
endloop
endfacet
facet normal 0.00 0.00 -1.00 
outer loop
vertex -1.1000 0.0000 -2.0000 
vertex -1.1179 0.1805 -2.0000 
vertex -0.9000 0.0000 -2.0000 
endloop
endfacet
facet normal 0.00 0.00 -1.00 
outer loop
vertex -1.1179 0.1805 -2.0000 
vertex -0.9207 0.2144 -2.0000 
vertex -0.9000 0.0000 -2.0000 
endloop
endfacet
facet normal 0.00 0.00 -1.00 
outer loop
vertex -1.1179 -0.1805 -2.0000 
vertex -1.1000 0.0000 -2.0000 
vertex -0.9207 -0.2144 -2.0000 
endloop
endfacet
facet normal 0.00 0.00 -1.00 
outer loop
vertex -1.1000 0.0000 -2.0000 
vertex -0.9000 0.0000 -2.0000 
vertex -0.9207 -0.2144 -2.0000 
endloop
endfacet
facet normal 0.00 0.00 -1.00 
outer loop
vertex -1.1573 -0.3279 -2.0000 
vertex -1.1179 -0.1805 -2.0000 
vertex -0.9640 -0.3792 -2.0000 
endloop
endfacet
facet normal 0.00 0.00 -1.00 
outer loop
vertex -1.1179 -0.1805 -2.0000 
vertex -0.9207 -0.2144 -2.0000 
vertex -0.9640 -0.3792 -2.0000 
endloop
endfacet
facet normal 0.92 0.24 -0.29 
outer loop
vertex -0.9207 0.2144 -2.0000 
vertex -0.9640 0.3792 -2.0000 
vertex -0.8035 0.5715 -1.3359 
endloop
endfacet
facet normal 0.83 0.42 -0.37 
outer loop
vertex -0.9207 0.2144 -2.0000 
vertex -0.8035 0.5715 -1.3359 
vertex -0.6947 0.3462 -1.3447 
endloop
endfacet
facet normal 0.94 0.09 -0.34 
outer loop
vertex -0.9000 0.0000 -2.0000 
vertex -0.9207 0.2144 -2.0000 
vertex -0.6947 0.3462 -1.3447 
endloop
endfacet
facet normal 0.91 0.17 -0.38 
outer loop
vertex -0.9000 0.0000 -2.0000 
vertex -0.6947 0.3462 -1.3447 
vertex -0.6364 0.0000 -1.3636 
endloop
endfacet
facet normal 0.69 0.36 -0.63 
outer loop
vertex -0.6947 0.3462 -1.3447 
vertex -0.8035 0.5715 -1.3359 
vertex -0.6533 0.7609 -1.0649 
endloop
endfacet
facet normal 0.46 0.46 -0.76 
outer loop
vertex -0.6947 0.3462 -1.3447 
vertex -0.6533 0.7609 -1.0649 
vertex -0.4239 0.5189 -1.0741 
endloop
endfacet
facet normal 0.65 0.15 -0.75 
outer loop
vertex -0.6364 0.0000 -1.3636 
vertex -0.6947 0.3462 -1.3447 
vertex -0.4239 0.5189 -1.0741 
endloop
endfacet
facet normal 0.36 0.34 -0.87 
outer loop
vertex -0.6364 0.0000 -1.3636 
vertex -0.4239 0.5189 -1.0741 
vertex 0.0000 0.0000 -1.1000 
endloop
endfacet
facet normal 0.94 -0.09 -0.34 
outer loop
vertex -0.9207 -0.2144 -2.0000 
vertex -0.9000 0.0000 -2.0000 
vertex -0.6947 -0.3462 -1.3447 
endloop
endfacet
facet normal 0.91 -0.17 -0.38 
outer loop
vertex -0.9000 0.0000 -2.0000 
vertex -0.6364 0.0000 -1.3636 
vertex -0.6947 -0.3462 -1.3447 
endloop
endfacet
facet normal 0.92 -0.24 -0.29 
outer loop
vertex -0.9640 -0.3792 -2.0000 
vertex -0.9207 -0.2144 -2.0000 
vertex -0.8035 -0.5715 -1.3359 
endloop
endfacet
facet normal 0.83 -0.42 -0.37 
outer loop
vertex -0.9207 -0.2144 -2.0000 
vertex -0.6947 -0.3462 -1.3447 
vertex -0.8035 -0.5715 -1.3359 
endloop
endfacet
facet normal 0.65 -0.15 -0.75 
outer loop
vertex -0.6947 -0.3462 -1.3447 
vertex -0.6364 0.0000 -1.3636 
vertex -0.4239 -0.5189 -1.0741 
endloop
endfacet
facet normal 0.36 -0.34 -0.87 
outer loop
vertex -0.6364 0.0000 -1.3636 
vertex 0.0000 0.0000 -1.1000 
vertex -0.4239 -0.5189 -1.0741 
endloop
endfacet
facet normal 0.69 -0.36 -0.63 
outer loop
vertex -0.8035 -0.5715 -1.3359 
vertex -0.6947 -0.3462 -1.3447 
vertex -0.6533 -0.7609 -1.0649 
endloop
endfacet
facet normal 0.46 -0.46 -0.76 
outer loop
vertex -0.6947 -0.3462 -1.3447 
vertex -0.4239 -0.5189 -1.0741 
vertex -0.6533 -0.7609 -1.0649 
endloop
endfacet
facet normal 0.13 0.65 -0.75 
outer loop
vertex -0.2922 0.8569 -0.7590 
vertex 0.0000 0.7778 -0.7778 
vertex -0.4239 0.5189 -1.0741 
endloop
endfacet
facet normal 0.38 0.35 -0.85 
outer loop
vertex 0.0000 0.7778 -0.7778 
vertex 0.0000 0.0000 -1.1000 
vertex -0.4239 0.5189 -1.0741 
endloop
endfacet
facet normal 0.35 0.69 -0.63 
outer loop
vertex -0.4892 0.9643 -0.7501 
vertex -0.2922 0.8569 -0.7590 
vertex -0.6533 0.7609 -1.0649 
endloop
endfacet
facet normal 0.49 0.49 -0.73 
outer loop
vertex -0.2922 0.8569 -0.7590 
vertex -0.4239 0.5189 -1.0741 
vertex -0.6533 0.7609 -1.0649 
endloop
endfacet
facet normal 0.09 0.94 -0.34 
outer loop
vertex -0.1805 1.1179 0.0000 
vertex 0.0000 1.1000 0.0000 
vertex -0.2922 0.8569 -0.7590 
endloop
endfacet
facet normal 0.22 0.90 -0.37 
outer loop
vertex 0.0000 1.1000 0.0000 
vertex 0.0000 0.7778 -0.7778 
vertex -0.2922 0.8569 -0.7590 
endloop
endfacet
facet normal 0.25 0.92 -0.29 
outer loop
vertex -0.3279 1.1573 0.0000 
vertex -0.1805 1.1179 0.0000 
vertex -0.4892 0.9643 -0.7501 
endloop
endfacet
facet normal 0.44 0.83 -0.35 
outer loop
vertex -0.1805 1.1179 0.0000 
vertex -0.2922 0.8569 -0.7590 
vertex -0.4892 0.9643 -0.7501 
endloop
endfacet
facet normal -0.35 0.69 -0.63 
outer loop
vertex 0.2922 0.8569 -0.7590 
vertex 0.4892 0.9643 -0.7501 
vertex 0.6533 0.7609 -1.0649 
endloop
endfacet
facet normal -0.49 0.49 -0.73 
outer loop
vertex 0.2922 0.8569 -0.7590 
vertex 0.6533 0.7609 -1.0649 
vertex 0.4239 0.5189 -1.0741 
endloop
endfacet
facet normal -0.13 0.65 -0.75 
outer loop
vertex 0.0000 0.7778 -0.7778 
vertex 0.2922 0.8569 -0.7590 
vertex 0.4239 0.5189 -1.0741 
endloop
endfacet
facet normal -0.38 0.35 -0.85 
outer loop
vertex 0.0000 0.7778 -0.7778 
vertex 0.4239 0.5189 -1.0741 
vertex 0.0000 0.0000 -1.1000 
endloop
endfacet
facet normal -0.25 0.92 -0.29 
outer loop
vertex 0.1805 1.1179 0.0000 
vertex 0.3279 1.1573 0.0000 
vertex 0.4892 0.9643 -0.7501 
endloop
endfacet
facet normal -0.44 0.83 -0.35 
outer loop
vertex 0.1805 1.1179 0.0000 
vertex 0.4892 0.9643 -0.7501 
vertex 0.2922 0.8569 -0.7590 
endloop
endfacet
facet normal -0.09 0.94 -0.34 
outer loop
vertex 0.0000 1.1000 0.0000 
vertex 0.1805 1.1179 0.0000 
vertex 0.2922 0.8569 -0.7590 
endloop
endfacet
facet normal -0.22 0.90 -0.37 
outer loop
vertex 0.0000 1.1000 0.0000 
vertex 0.2922 0.8569 -0.7590 
vertex 0.0000 0.7778 -0.7778 
endloop
endfacet
facet normal -0.44 0.83 0.35 
outer loop
vertex 0.2922 0.8569 0.7590 
vertex 0.4892 0.9643 0.7501 
vertex 0.1805 1.1179 0.0000 
endloop
endfacet
facet normal -0.25 0.92 0.29 
outer loop
vertex 0.4892 0.9643 0.7501 
vertex 0.3279 1.1573 0.0000 
vertex 0.1805 1.1179 0.0000 
endloop
endfacet
facet normal -0.22 0.90 0.37 
outer loop
vertex 0.0000 0.7778 0.7778 
vertex 0.2922 0.8569 0.7590 
vertex 0.0000 1.1000 0.0000 
endloop
endfacet
facet normal -0.09 0.94 0.34 
outer loop
vertex 0.2922 0.8569 0.7590 
vertex 0.1805 1.1179 0.0000 
vertex 0.0000 1.1000 0.0000 
endloop
endfacet
facet normal -0.49 0.49 0.73 
outer loop
vertex 0.4239 0.5189 1.0741 
vertex 0.6533 0.7609 1.0649 
vertex 0.2922 0.8569 0.7590 
endloop
endfacet
facet normal -0.35 0.69 0.63 
outer loop
vertex 0.6533 0.7609 1.0649 
vertex 0.4892 0.9643 0.7501 
vertex 0.2922 0.8569 0.7590 
endloop
endfacet
facet normal -0.38 0.35 0.85 
outer loop
vertex 0.0000 0.0000 1.1000 
vertex 0.4239 0.5189 1.0741 
vertex 0.0000 0.7778 0.7778 
endloop
endfacet
facet normal -0.13 0.65 0.75 
outer loop
vertex 0.4239 0.5189 1.0741 
vertex 0.2922 0.8569 0.7590 
vertex 0.0000 0.7778 0.7778 
endloop
endfacet
facet normal 0.22 0.90 0.37 
outer loop
vertex -0.2922 0.8569 0.7590 
vertex 0.0000 0.7778 0.7778 
vertex 0.0000 1.1000 0.0000 
endloop
endfacet
facet normal 0.09 0.94 0.34 
outer loop
vertex -0.2922 0.8569 0.7590 
vertex 0.0000 1.1000 0.0000 
vertex -0.1805 1.1179 0.0000 
endloop
endfacet
facet normal 0.44 0.83 0.35 
outer loop
vertex -0.4892 0.9643 0.7501 
vertex -0.2922 0.8569 0.7590 
vertex -0.1805 1.1179 0.0000 
endloop
endfacet
facet normal 0.25 0.92 0.29 
outer loop
vertex -0.4892 0.9643 0.7501 
vertex -0.1805 1.1179 0.0000 
vertex -0.3279 1.1573 0.0000 
endloop
endfacet
facet normal 0.38 0.35 0.85 
outer loop
vertex -0.4239 0.5189 1.0741 
vertex 0.0000 0.0000 1.1000 
vertex 0.0000 0.7778 0.7778 
endloop
endfacet
facet normal 0.13 0.65 0.75 
outer loop
vertex -0.4239 0.5189 1.0741 
vertex 0.0000 0.7778 0.7778 
vertex -0.2922 0.8569 0.7590 
endloop
endfacet
facet normal 0.49 0.49 0.73 
outer loop
vertex -0.6533 0.7609 1.0649 
vertex -0.4239 0.5189 1.0741 
vertex -0.2922 0.8569 0.7590 
endloop
endfacet
facet normal 0.35 0.69 0.63 
outer loop
vertex -0.6533 0.7609 1.0649 
vertex -0.2922 0.8569 0.7590 
vertex -0.4892 0.9643 0.7501 
endloop
endfacet
facet normal 0.85 0.50 -0.13 
outer loop
vertex 0.5715 0.8035 0.6641 
vertex 0.3792 0.9640 0.0000 
vertex 0.4892 0.9643 0.7501 
endloop
endfacet
facet normal 0.96 0.25 -0.14 
outer loop
vertex 0.3792 0.9640 0.0000 
vertex 0.3279 1.1573 0.0000 
vertex 0.4892 0.9643 0.7501 
endloop
endfacet
facet normal 0.67 0.74 -0.06 
outer loop
vertex 0.7609 0.6533 0.9351 
vertex 0.5715 0.8035 0.6641 
vertex 0.6533 0.7609 1.0649 
endloop
endfacet
facet normal 0.86 0.50 -0.12 
outer loop
vertex 0.5715 0.8035 0.6641 
vertex 0.4892 0.9643 0.7501 
vertex 0.6533 0.7609 1.0649 
endloop
endfacet
facet normal 0.80 0.55 0.26 
outer loop
vertex 0.5715 0.8035 -0.6641 
vertex 0.7609 0.6533 -0.9351 
vertex 0.4892 0.9643 -0.7501 
endloop
endfacet
facet normal 0.74 0.67 -0.05 
outer loop
vertex 0.7609 0.6533 -0.9351 
vertex 0.6533 0.7609 -1.0649 
vertex 0.4892 0.9643 -0.7501 
endloop
endfacet
facet normal 0.94 0.25 0.21 
outer loop
vertex 0.3792 0.9640 0.0000 
vertex 0.5715 0.8035 -0.6641 
vertex 0.3279 1.1573 0.0000 
endloop
endfacet
facet normal 0.87 0.48 0.06 
outer loop
vertex 0.5715 0.8035 -0.6641 
vertex 0.4892 0.9643 -0.7501 
vertex 0.3279 1.1573 0.0000 
endloop
endfacet
facet normal -0.87 0.48 -0.06 
outer loop
vertex -0.4892 0.9643 0.7501 
vertex -0.3279 1.1573 0.0000 
vertex -0.5715 0.8035 0.6641 
endloop
endfacet
facet normal -0.94 0.25 -0.21 
outer loop
vertex -0.3279 1.1573 0.0000 
vertex -0.3792 0.9640 0.0000 
vertex -0.5715 0.8035 0.6641 
endloop
endfacet
facet normal -0.74 0.67 0.05 
outer loop
vertex -0.6533 0.7609 1.0649 
vertex -0.4892 0.9643 0.7501 
vertex -0.7609 0.6533 0.9351 
endloop
endfacet
facet normal -0.80 0.55 -0.26 
outer loop
vertex -0.4892 0.9643 0.7501 
vertex -0.5715 0.8035 0.6641 
vertex -0.7609 0.6533 0.9351 
endloop
endfacet
facet normal -0.86 0.50 0.12 
outer loop
vertex -0.4892 0.9643 -0.7501 
vertex -0.6533 0.7609 -1.0649 
vertex -0.5715 0.8035 -0.6641 
endloop
endfacet
facet normal -0.67 0.74 0.06 
outer loop
vertex -0.6533 0.7609 -1.0649 
vertex -0.7609 0.6533 -0.9351 
vertex -0.5715 0.8035 -0.6641 
endloop
endfacet
facet normal -0.96 0.25 0.14 
outer loop
vertex -0.3279 1.1573 0.0000 
vertex -0.4892 0.9643 -0.7501 
vertex -0.3792 0.9640 0.0000 
endloop
endfacet
facet normal -0.85 0.50 0.13 
outer loop
vertex -0.4892 0.9643 -0.7501 
vertex -0.5715 0.8035 -0.6641 
vertex -0.3792 0.9640 0.0000 
endloop
endfacet
facet normal -0.34 -0.36 0.87 
outer loop
vertex -0.5189 0.4239 -0.9259 
vertex 0.0000 0.0000 -0.9000 
vertex 0.0000 0.6364 -0.6364 
endloop
endfacet
facet normal -0.15 -0.65 0.75 
outer loop
vertex -0.5189 0.4239 -0.9259 
vertex 0.0000 0.6364 -0.6364 
vertex -0.3462 0.6947 -0.6553 
endloop
endfacet
facet normal -0.46 -0.46 0.76 
outer loop
vertex -0.7609 0.6533 -0.9351 
vertex -0.5189 0.4239 -0.9259 
vertex -0.3462 0.6947 -0.6553 
endloop
endfacet
facet normal -0.36 -0.69 0.63 
outer loop
vertex -0.7609 0.6533 -0.9351 
vertex -0.3462 0.6947 -0.6553 
vertex -0.5715 0.8035 -0.6641 
endloop
endfacet
facet normal -0.17 -0.91 0.38 
outer loop
vertex -0.3462 0.6947 -0.6553 
vertex 0.0000 0.6364 -0.6364 
vertex 0.0000 0.9000 0.0000 
endloop
endfacet
facet normal -0.09 -0.94 0.34 
outer loop
vertex -0.3462 0.6947 -0.6553 
vertex 0.0000 0.9000 0.0000 
vertex -0.2144 0.9207 0.0000 
endloop
endfacet
facet normal -0.42 -0.83 0.37 
outer loop
vertex -0.5715 0.8035 -0.6641 
vertex -0.3462 0.6947 -0.6553 
vertex -0.2144 0.9207 0.0000 
endloop
endfacet
facet normal -0.24 -0.92 0.29 
outer loop
vertex -0.5715 0.8035 -0.6641 
vertex -0.2144 0.9207 0.0000 
vertex -0.3792 0.9640 0.0000 
endloop
endfacet
facet normal 0.46 -0.46 0.76 
outer loop
vertex 0.5189 0.4239 -0.9259 
vertex 0.7609 0.6533 -0.9351 
vertex 0.3462 0.6947 -0.6553 
endloop
endfacet
facet normal 0.36 -0.69 0.63 
outer loop
vertex 0.7609 0.6533 -0.9351 
vertex 0.5715 0.8035 -0.6641 
vertex 0.3462 0.6947 -0.6553 
endloop
endfacet
facet normal 0.34 -0.36 0.87 
outer loop
vertex 0.0000 0.0000 -0.9000 
vertex 0.5189 0.4239 -0.9259 
vertex 0.0000 0.6364 -0.6364 
endloop
endfacet
facet normal 0.15 -0.65 0.75 
outer loop
vertex 0.5189 0.4239 -0.9259 
vertex 0.3462 0.6947 -0.6553 
vertex 0.0000 0.6364 -0.6364 
endloop
endfacet
facet normal 0.42 -0.83 0.37 
outer loop
vertex 0.3462 0.6947 -0.6553 
vertex 0.5715 0.8035 -0.6641 
vertex 0.2144 0.9207 0.0000 
endloop
endfacet
facet normal 0.24 -0.92 0.29 
outer loop
vertex 0.5715 0.8035 -0.6641 
vertex 0.3792 0.9640 0.0000 
vertex 0.2144 0.9207 0.0000 
endloop
endfacet
facet normal 0.17 -0.91 0.38 
outer loop
vertex 0.0000 0.6364 -0.6364 
vertex 0.3462 0.6947 -0.6553 
vertex 0.0000 0.9000 0.0000 
endloop
endfacet
facet normal 0.09 -0.94 0.34 
outer loop
vertex 0.3462 0.6947 -0.6553 
vertex 0.2144 0.9207 0.0000 
vertex 0.0000 0.9000 0.0000 
endloop
endfacet
facet normal 0.24 -0.92 -0.29 
outer loop
vertex 0.2144 0.9207 0.0000 
vertex 0.3792 0.9640 0.0000 
vertex 0.5715 0.8035 0.6641 
endloop
endfacet
facet normal 0.42 -0.83 -0.37 
outer loop
vertex 0.2144 0.9207 0.0000 
vertex 0.5715 0.8035 0.6641 
vertex 0.3462 0.6947 0.6553 
endloop
endfacet
facet normal 0.09 -0.94 -0.34 
outer loop
vertex 0.0000 0.9000 0.0000 
vertex 0.2144 0.9207 0.0000 
vertex 0.3462 0.6947 0.6553 
endloop
endfacet
facet normal 0.17 -0.91 -0.38 
outer loop
vertex 0.0000 0.9000 0.0000 
vertex 0.3462 0.6947 0.6553 
vertex 0.0000 0.6364 0.6364 
endloop
endfacet
facet normal 0.36 -0.69 -0.63 
outer loop
vertex 0.3462 0.6947 0.6553 
vertex 0.5715 0.8035 0.6641 
vertex 0.7609 0.6533 0.9351 
endloop
endfacet
facet normal 0.46 -0.46 -0.76 
outer loop
vertex 0.3462 0.6947 0.6553 
vertex 0.7609 0.6533 0.9351 
vertex 0.5189 0.4239 0.9259 
endloop
endfacet
facet normal 0.15 -0.65 -0.75 
outer loop
vertex 0.0000 0.6364 0.6364 
vertex 0.3462 0.6947 0.6553 
vertex 0.5189 0.4239 0.9259 
endloop
endfacet
facet normal 0.34 -0.36 -0.87 
outer loop
vertex 0.0000 0.6364 0.6364 
vertex 0.5189 0.4239 0.9259 
vertex 0.0000 0.0000 0.9000 
endloop
endfacet
facet normal -0.09 -0.94 -0.34 
outer loop
vertex -0.2144 0.9207 0.0000 
vertex 0.0000 0.9000 0.0000 
vertex -0.3462 0.6947 0.6553 
endloop
endfacet
facet normal -0.17 -0.91 -0.38 
outer loop
vertex 0.0000 0.9000 0.0000 
vertex 0.0000 0.6364 0.6364 
vertex -0.3462 0.6947 0.6553 
endloop
endfacet
facet normal -0.24 -0.92 -0.29 
outer loop
vertex -0.3792 0.9640 0.0000 
vertex -0.2144 0.9207 0.0000 
vertex -0.5715 0.8035 0.6641 
endloop
endfacet
facet normal -0.42 -0.83 -0.37 
outer loop
vertex -0.2144 0.9207 0.0000 
vertex -0.3462 0.6947 0.6553 
vertex -0.5715 0.8035 0.6641 
endloop
endfacet
facet normal -0.15 -0.65 -0.75 
outer loop
vertex -0.3462 0.6947 0.6553 
vertex 0.0000 0.6364 0.6364 
vertex -0.5189 0.4239 0.9259 
endloop
endfacet
facet normal -0.34 -0.36 -0.87 
outer loop
vertex 0.0000 0.6364 0.6364 
vertex 0.0000 0.0000 0.9000 
vertex -0.5189 0.4239 0.9259 
endloop
endfacet
facet normal -0.36 -0.69 -0.63 
outer loop
vertex -0.5715 0.8035 0.6641 
vertex -0.3462 0.6947 0.6553 
vertex -0.7609 0.6533 0.9351 
endloop
endfacet
facet normal -0.46 -0.46 -0.76 
outer loop
vertex -0.3462 0.6947 0.6553 
vertex -0.5189 0.4239 0.9259 
vertex -0.7609 0.6533 0.9351 
endloop
endfacet
facet normal -0.13 -0.65 -0.75 
outer loop
vertex 0.2922 -0.8569 -0.7590 
vertex 0.0000 -0.7778 -0.7778 
vertex 0.4239 -0.5189 -1.0741 
endloop
endfacet
facet normal -0.38 -0.35 -0.85 
outer loop
vertex 0.0000 -0.7778 -0.7778 
vertex 0.0000 0.0000 -1.1000 
vertex 0.4239 -0.5189 -1.0741 
endloop
endfacet
facet normal -0.35 -0.69 -0.63 
outer loop
vertex 0.4892 -0.9643 -0.7501 
vertex 0.2922 -0.8569 -0.7590 
vertex 0.6533 -0.7609 -1.0649 
endloop
endfacet
facet normal -0.49 -0.49 -0.73 
outer loop
vertex 0.2922 -0.8569 -0.7590 
vertex 0.4239 -0.5189 -1.0741 
vertex 0.6533 -0.7609 -1.0649 
endloop
endfacet
facet normal -0.09 -0.94 -0.34 
outer loop
vertex 0.1805 -1.1179 0.0000 
vertex 0.0000 -1.1000 0.0000 
vertex 0.2922 -0.8569 -0.7590 
endloop
endfacet
facet normal -0.22 -0.90 -0.37 
outer loop
vertex 0.0000 -1.1000 0.0000 
vertex 0.0000 -0.7778 -0.7778 
vertex 0.2922 -0.8569 -0.7590 
endloop
endfacet
facet normal -0.25 -0.92 -0.29 
outer loop
vertex 0.3279 -1.1573 0.0000 
vertex 0.1805 -1.1179 0.0000 
vertex 0.4892 -0.9643 -0.7501 
endloop
endfacet
facet normal -0.44 -0.83 -0.35 
outer loop
vertex 0.1805 -1.1179 0.0000 
vertex 0.2922 -0.8569 -0.7590 
vertex 0.4892 -0.9643 -0.7501 
endloop
endfacet
facet normal 0.35 -0.69 -0.63 
outer loop
vertex -0.2922 -0.8569 -0.7590 
vertex -0.4892 -0.9643 -0.7501 
vertex -0.6533 -0.7609 -1.0649 
endloop
endfacet
facet normal 0.49 -0.49 -0.73 
outer loop
vertex -0.2922 -0.8569 -0.7590 
vertex -0.6533 -0.7609 -1.0649 
vertex -0.4239 -0.5189 -1.0741 
endloop
endfacet
facet normal 0.13 -0.65 -0.75 
outer loop
vertex 0.0000 -0.7778 -0.7778 
vertex -0.2922 -0.8569 -0.7590 
vertex -0.4239 -0.5189 -1.0741 
endloop
endfacet
facet normal 0.38 -0.35 -0.85 
outer loop
vertex 0.0000 -0.7778 -0.7778 
vertex -0.4239 -0.5189 -1.0741 
vertex 0.0000 0.0000 -1.1000 
endloop
endfacet
facet normal 0.25 -0.92 -0.29 
outer loop
vertex -0.1805 -1.1179 0.0000 
vertex -0.3279 -1.1573 0.0000 
vertex -0.4892 -0.9643 -0.7501 
endloop
endfacet
facet normal 0.44 -0.83 -0.35 
outer loop
vertex -0.1805 -1.1179 0.0000 
vertex -0.4892 -0.9643 -0.7501 
vertex -0.2922 -0.8569 -0.7590 
endloop
endfacet
facet normal 0.09 -0.94 -0.34 
outer loop
vertex 0.0000 -1.1000 0.0000 
vertex -0.1805 -1.1179 0.0000 
vertex -0.2922 -0.8569 -0.7590 
endloop
endfacet
facet normal 0.22 -0.90 -0.37 
outer loop
vertex 0.0000 -1.1000 0.0000 
vertex -0.2922 -0.8569 -0.7590 
vertex 0.0000 -0.7778 -0.7778 
endloop
endfacet
facet normal 0.44 -0.83 0.35 
outer loop
vertex -0.2922 -0.8569 0.7590 
vertex -0.4892 -0.9643 0.7501 
vertex -0.1805 -1.1179 0.0000 
endloop
endfacet
facet normal 0.25 -0.92 0.29 
outer loop
vertex -0.4892 -0.9643 0.7501 
vertex -0.3279 -1.1573 0.0000 
vertex -0.1805 -1.1179 0.0000 
endloop
endfacet
facet normal 0.22 -0.90 0.37 
outer loop
vertex 0.0000 -0.7778 0.7778 
vertex -0.2922 -0.8569 0.7590 
vertex 0.0000 -1.1000 0.0000 
endloop
endfacet
facet normal 0.09 -0.94 0.34 
outer loop
vertex -0.2922 -0.8569 0.7590 
vertex -0.1805 -1.1179 0.0000 
vertex 0.0000 -1.1000 0.0000 
endloop
endfacet
facet normal 0.49 -0.49 0.73 
outer loop
vertex -0.4239 -0.5189 1.0741 
vertex -0.6533 -0.7609 1.0649 
vertex -0.2922 -0.8569 0.7590 
endloop
endfacet
facet normal 0.35 -0.69 0.63 
outer loop
vertex -0.6533 -0.7609 1.0649 
vertex -0.4892 -0.9643 0.7501 
vertex -0.2922 -0.8569 0.7590 
endloop
endfacet
facet normal 0.38 -0.35 0.85 
outer loop
vertex 0.0000 0.0000 1.1000 
vertex -0.4239 -0.5189 1.0741 
vertex 0.0000 -0.7778 0.7778 
endloop
endfacet
facet normal 0.13 -0.65 0.75 
outer loop
vertex -0.4239 -0.5189 1.0741 
vertex -0.2922 -0.8569 0.7590 
vertex 0.0000 -0.7778 0.7778 
endloop
endfacet
facet normal -0.22 -0.90 0.37 
outer loop
vertex 0.2922 -0.8569 0.7590 
vertex 0.0000 -0.7778 0.7778 
vertex 0.0000 -1.1000 0.0000 
endloop
endfacet
facet normal -0.09 -0.94 0.34 
outer loop
vertex 0.2922 -0.8569 0.7590 
vertex 0.0000 -1.1000 0.0000 
vertex 0.1805 -1.1179 0.0000 
endloop
endfacet
facet normal -0.44 -0.83 0.35 
outer loop
vertex 0.4892 -0.9643 0.7501 
vertex 0.2922 -0.8569 0.7590 
vertex 0.1805 -1.1179 0.0000 
endloop
endfacet
facet normal -0.25 -0.92 0.29 
outer loop
vertex 0.4892 -0.9643 0.7501 
vertex 0.1805 -1.1179 0.0000 
vertex 0.3279 -1.1573 0.0000 
endloop
endfacet
facet normal -0.38 -0.35 0.85 
outer loop
vertex 0.4239 -0.5189 1.0741 
vertex 0.0000 0.0000 1.1000 
vertex 0.0000 -0.7778 0.7778 
endloop
endfacet
facet normal -0.13 -0.65 0.75 
outer loop
vertex 0.4239 -0.5189 1.0741 
vertex 0.0000 -0.7778 0.7778 
vertex 0.2922 -0.8569 0.7590 
endloop
endfacet
facet normal -0.49 -0.49 0.73 
outer loop
vertex 0.6533 -0.7609 1.0649 
vertex 0.4239 -0.5189 1.0741 
vertex 0.2922 -0.8569 0.7590 
endloop
endfacet
facet normal -0.35 -0.69 0.63 
outer loop
vertex 0.6533 -0.7609 1.0649 
vertex 0.2922 -0.8569 0.7590 
vertex 0.4892 -0.9643 0.7501 
endloop
endfacet
facet normal -0.85 -0.50 -0.13 
outer loop
vertex -0.5715 -0.8035 0.6641 
vertex -0.3792 -0.9640 0.0000 
vertex -0.4892 -0.9643 0.7501 
endloop
endfacet
facet normal -0.96 -0.25 -0.14 
outer loop
vertex -0.3792 -0.9640 0.0000 
vertex -0.3279 -1.1573 0.0000 
vertex -0.4892 -0.9643 0.7501 
endloop
endfacet
facet normal -0.67 -0.74 -0.06 
outer loop
vertex -0.7609 -0.6533 0.9351 
vertex -0.5715 -0.8035 0.6641 
vertex -0.6533 -0.7609 1.0649 
endloop
endfacet
facet normal -0.86 -0.50 -0.12 
outer loop
vertex -0.5715 -0.8035 0.6641 
vertex -0.4892 -0.9643 0.7501 
vertex -0.6533 -0.7609 1.0649 
endloop
endfacet
facet normal -0.80 -0.55 0.26 
outer loop
vertex -0.5715 -0.8035 -0.6641 
vertex -0.7609 -0.6533 -0.9351 
vertex -0.4892 -0.9643 -0.7501 
endloop
endfacet
facet normal -0.74 -0.67 -0.05 
outer loop
vertex -0.7609 -0.6533 -0.9351 
vertex -0.6533 -0.7609 -1.0649 
vertex -0.4892 -0.9643 -0.7501 
endloop
endfacet
facet normal -0.94 -0.25 0.21 
outer loop
vertex -0.3792 -0.9640 0.0000 
vertex -0.5715 -0.8035 -0.6641 
vertex -0.3279 -1.1573 0.0000 
endloop
endfacet
facet normal -0.87 -0.48 0.06 
outer loop
vertex -0.5715 -0.8035 -0.6641 
vertex -0.4892 -0.9643 -0.7501 
vertex -0.3279 -1.1573 0.0000 
endloop
endfacet
facet normal 0.87 -0.48 -0.06 
outer loop
vertex 0.4892 -0.9643 0.7501 
vertex 0.3279 -1.1573 0.0000 
vertex 0.5715 -0.8035 0.6641 
endloop
endfacet
facet normal 0.94 -0.25 -0.21 
outer loop
vertex 0.3279 -1.1573 0.0000 
vertex 0.3792 -0.9640 0.0000 
vertex 0.5715 -0.8035 0.6641 
endloop
endfacet
facet normal 0.74 -0.67 0.05 
outer loop
vertex 0.6533 -0.7609 1.0649 
vertex 0.4892 -0.9643 0.7501 
vertex 0.7609 -0.6533 0.9351 
endloop
endfacet
facet normal 0.80 -0.55 -0.26 
outer loop
vertex 0.4892 -0.9643 0.7501 
vertex 0.5715 -0.8035 0.6641 
vertex 0.7609 -0.6533 0.9351 
endloop
endfacet
facet normal 0.86 -0.50 0.12 
outer loop
vertex 0.4892 -0.9643 -0.7501 
vertex 0.6533 -0.7609 -1.0649 
vertex 0.5715 -0.8035 -0.6641 
endloop
endfacet
facet normal 0.67 -0.74 0.06 
outer loop
vertex 0.6533 -0.7609 -1.0649 
vertex 0.7609 -0.6533 -0.9351 
vertex 0.5715 -0.8035 -0.6641 
endloop
endfacet
facet normal 0.96 -0.25 0.14 
outer loop
vertex 0.3279 -1.1573 0.0000 
vertex 0.4892 -0.9643 -0.7501 
vertex 0.3792 -0.9640 0.0000 
endloop
endfacet
facet normal 0.85 -0.50 0.13 
outer loop
vertex 0.4892 -0.9643 -0.7501 
vertex 0.5715 -0.8035 -0.6641 
vertex 0.3792 -0.9640 0.0000 
endloop
endfacet
facet normal 0.34 0.36 0.87 
outer loop
vertex 0.5189 -0.4239 -0.9259 
vertex 0.0000 0.0000 -0.9000 
vertex 0.0000 -0.6364 -0.6364 
endloop
endfacet
facet normal 0.15 0.65 0.75 
outer loop
vertex 0.5189 -0.4239 -0.9259 
vertex 0.0000 -0.6364 -0.6364 
vertex 0.3462 -0.6947 -0.6553 
endloop
endfacet
facet normal 0.46 0.46 0.76 
outer loop
vertex 0.7609 -0.6533 -0.9351 
vertex 0.5189 -0.4239 -0.9259 
vertex 0.3462 -0.6947 -0.6553 
endloop
endfacet
facet normal 0.36 0.69 0.63 
outer loop
vertex 0.7609 -0.6533 -0.9351 
vertex 0.3462 -0.6947 -0.6553 
vertex 0.5715 -0.8035 -0.6641 
endloop
endfacet
facet normal 0.17 0.91 0.38 
outer loop
vertex 0.3462 -0.6947 -0.6553 
vertex 0.0000 -0.6364 -0.6364 
vertex 0.0000 -0.9000 0.0000 
endloop
endfacet
facet normal 0.09 0.94 0.34 
outer loop
vertex 0.3462 -0.6947 -0.6553 
vertex 0.0000 -0.9000 0.0000 
vertex 0.2144 -0.9207 0.0000 
endloop
endfacet
facet normal 0.42 0.83 0.37 
outer loop
vertex 0.5715 -0.8035 -0.6641 
vertex 0.3462 -0.6947 -0.6553 
vertex 0.2144 -0.9207 0.0000 
endloop
endfacet
facet normal 0.24 0.92 0.29 
outer loop
vertex 0.5715 -0.8035 -0.6641 
vertex 0.2144 -0.9207 0.0000 
vertex 0.3792 -0.9640 0.0000 
endloop
endfacet
facet normal -0.46 0.46 0.76 
outer loop
vertex -0.5189 -0.4239 -0.9259 
vertex -0.7609 -0.6533 -0.9351 
vertex -0.3462 -0.6947 -0.6553 
endloop
endfacet
facet normal -0.36 0.69 0.63 
outer loop
vertex -0.7609 -0.6533 -0.9351 
vertex -0.5715 -0.8035 -0.6641 
vertex -0.3462 -0.6947 -0.6553 
endloop
endfacet
facet normal -0.34 0.36 0.87 
outer loop
vertex 0.0000 0.0000 -0.9000 
vertex -0.5189 -0.4239 -0.9259 
vertex 0.0000 -0.6364 -0.6364 
endloop
endfacet
facet normal -0.15 0.65 0.75 
outer loop
vertex -0.5189 -0.4239 -0.9259 
vertex -0.3462 -0.6947 -0.6553 
vertex 0.0000 -0.6364 -0.6364 
endloop
endfacet
facet normal -0.42 0.83 0.37 
outer loop
vertex -0.3462 -0.6947 -0.6553 
vertex -0.5715 -0.8035 -0.6641 
vertex -0.2144 -0.9207 0.0000 
endloop
endfacet
facet normal -0.24 0.92 0.29 
outer loop
vertex -0.5715 -0.8035 -0.6641 
vertex -0.3792 -0.9640 0.0000 
vertex -0.2144 -0.9207 0.0000 
endloop
endfacet
facet normal -0.17 0.91 0.38 
outer loop
vertex 0.0000 -0.6364 -0.6364 
vertex -0.3462 -0.6947 -0.6553 
vertex 0.0000 -0.9000 0.0000 
endloop
endfacet
facet normal -0.09 0.94 0.34 
outer loop
vertex -0.3462 -0.6947 -0.6553 
vertex -0.2144 -0.9207 0.0000 
vertex 0.0000 -0.9000 0.0000 
endloop
endfacet
facet normal -0.24 0.92 -0.29 
outer loop
vertex -0.2144 -0.9207 0.0000 
vertex -0.3792 -0.9640 0.0000 
vertex -0.5715 -0.8035 0.6641 
endloop
endfacet
facet normal -0.42 0.83 -0.37 
outer loop
vertex -0.2144 -0.9207 0.0000 
vertex -0.5715 -0.8035 0.6641 
vertex -0.3462 -0.6947 0.6553 
endloop
endfacet
facet normal -0.09 0.94 -0.34 
outer loop
vertex 0.0000 -0.9000 0.0000 
vertex -0.2144 -0.9207 0.0000 
vertex -0.3462 -0.6947 0.6553 
endloop
endfacet
facet normal -0.17 0.91 -0.38 
outer loop
vertex 0.0000 -0.9000 0.0000 
vertex -0.3462 -0.6947 0.6553 
vertex 0.0000 -0.6364 0.6364 
endloop
endfacet
facet normal -0.36 0.69 -0.63 
outer loop
vertex -0.3462 -0.6947 0.6553 
vertex -0.5715 -0.8035 0.6641 
vertex -0.7609 -0.6533 0.9351 
endloop
endfacet
facet normal -0.46 0.46 -0.76 
outer loop
vertex -0.3462 -0.6947 0.6553 
vertex -0.7609 -0.6533 0.9351 
vertex -0.5189 -0.4239 0.9259 
endloop
endfacet
facet normal -0.15 0.65 -0.75 
outer loop
vertex 0.0000 -0.6364 0.6364 
vertex -0.3462 -0.6947 0.6553 
vertex -0.5189 -0.4239 0.9259 
endloop
endfacet
facet normal -0.34 0.36 -0.87 
outer loop
vertex 0.0000 -0.6364 0.6364 
vertex -0.5189 -0.4239 0.9259 
vertex 0.0000 0.0000 0.9000 
endloop
endfacet
facet normal 0.09 0.94 -0.34 
outer loop
vertex 0.2144 -0.9207 0.0000 
vertex 0.0000 -0.9000 0.0000 
vertex 0.3462 -0.6947 0.6553 
endloop
endfacet
facet normal 0.17 0.91 -0.38 
outer loop
vertex 0.0000 -0.9000 0.0000 
vertex 0.0000 -0.6364 0.6364 
vertex 0.3462 -0.6947 0.6553 
endloop
endfacet
facet normal 0.24 0.92 -0.29 
outer loop
vertex 0.3792 -0.9640 0.0000 
vertex 0.2144 -0.9207 0.0000 
vertex 0.5715 -0.8035 0.6641 
endloop
endfacet
facet normal 0.42 0.83 -0.37 
outer loop
vertex 0.2144 -0.9207 0.0000 
vertex 0.3462 -0.6947 0.6553 
vertex 0.5715 -0.8035 0.6641 
endloop
endfacet
facet normal 0.15 0.65 -0.75 
outer loop
vertex 0.3462 -0.6947 0.6553 
vertex 0.0000 -0.6364 0.6364 
vertex 0.5189 -0.4239 0.9259 
endloop
endfacet
facet normal 0.34 0.36 -0.87 
outer loop
vertex 0.0000 -0.6364 0.6364 
vertex 0.0000 0.0000 0.9000 
vertex 0.5189 -0.4239 0.9259 
endloop
endfacet
facet normal 0.36 0.69 -0.63 
outer loop
vertex 0.5715 -0.8035 0.6641 
vertex 0.3462 -0.6947 0.6553 
vertex 0.7609 -0.6533 0.9351 
endloop
endfacet
facet normal 0.46 0.46 -0.76 
outer loop
vertex 0.3462 -0.6947 0.6553 
vertex 0.5189 -0.4239 0.9259 
vertex 0.7609 -0.6533 0.9351 
endloop
endfacet
facet normal 0.65 -0.13 -0.75 
outer loop
vertex 0.8569 0.2922 1.2410 
vertex 0.7778 0.0000 1.2222 
vertex 0.5189 0.4239 0.9259 
endloop
endfacet
facet normal 0.35 -0.38 -0.85 
outer loop
vertex 0.7778 0.0000 1.2222 
vertex 0.0000 0.0000 0.9000 
vertex 0.5189 0.4239 0.9259 
endloop
endfacet
facet normal 0.69 -0.35 -0.63 
outer loop
vertex 0.9643 0.4892 1.2499 
vertex 0.8569 0.2922 1.2410 
vertex 0.7609 0.6533 0.9351 
endloop
endfacet
facet normal 0.49 -0.49 -0.73 
outer loop
vertex 0.8569 0.2922 1.2410 
vertex 0.5189 0.4239 0.9259 
vertex 0.7609 0.6533 0.9351 
endloop
endfacet
facet normal 0.94 -0.09 -0.34 
outer loop
vertex 1.1179 0.1805 2.0000 
vertex 1.1000 0.0000 2.0000 
vertex 0.8569 0.2922 1.2410 
endloop
endfacet
facet normal 0.90 -0.22 -0.37 
outer loop
vertex 1.1000 0.0000 2.0000 
vertex 0.7778 0.0000 1.2222 
vertex 0.8569 0.2922 1.2410 
endloop
endfacet
facet normal 0.92 -0.25 -0.29 
outer loop
vertex 1.1573 0.3279 2.0000 
vertex 1.1179 0.1805 2.0000 
vertex 0.9643 0.4892 1.2499 
endloop
endfacet
facet normal 0.83 -0.44 -0.35 
outer loop
vertex 1.1179 0.1805 2.0000 
vertex 0.8569 0.2922 1.2410 
vertex 0.9643 0.4892 1.2499 
endloop
endfacet
facet normal 0.69 0.35 -0.63 
outer loop
vertex 0.8569 -0.2922 1.2410 
vertex 0.9643 -0.4892 1.2499 
vertex 0.7609 -0.6533 0.9351 
endloop
endfacet
facet normal 0.49 0.49 -0.73 
outer loop
vertex 0.8569 -0.2922 1.2410 
vertex 0.7609 -0.6533 0.9351 
vertex 0.5189 -0.4239 0.9259 
endloop
endfacet
facet normal 0.65 0.13 -0.75 
outer loop
vertex 0.7778 0.0000 1.2222 
vertex 0.8569 -0.2922 1.2410 
vertex 0.5189 -0.4239 0.9259 
endloop
endfacet
facet normal 0.35 0.38 -0.85 
outer loop
vertex 0.7778 0.0000 1.2222 
vertex 0.5189 -0.4239 0.9259 
vertex 0.0000 0.0000 0.9000 
endloop
endfacet
facet normal 0.92 0.25 -0.29 
outer loop
vertex 1.1179 -0.1805 2.0000 
vertex 1.1573 -0.3279 2.0000 
vertex 0.9643 -0.4892 1.2499 
endloop
endfacet
facet normal 0.83 0.44 -0.35 
outer loop
vertex 1.1179 -0.1805 2.0000 
vertex 0.9643 -0.4892 1.2499 
vertex 0.8569 -0.2922 1.2410 
endloop
endfacet
facet normal 0.94 0.09 -0.34 
outer loop
vertex 1.1000 0.0000 2.0000 
vertex 1.1179 -0.1805 2.0000 
vertex 0.8569 -0.2922 1.2410 
endloop
endfacet
facet normal 0.90 0.22 -0.37 
outer loop
vertex 1.1000 0.0000 2.0000 
vertex 0.8569 -0.2922 1.2410 
vertex 0.7778 0.0000 1.2222 
endloop
endfacet
facet normal 0.55 -0.80 0.26 
outer loop
vertex 0.8035 -0.5715 1.3359 
vertex 0.6533 -0.7609 1.0649 
vertex 0.9643 -0.4892 1.2499 
endloop
endfacet
facet normal 0.67 -0.74 -0.05 
outer loop
vertex 0.6533 -0.7609 1.0649 
vertex 0.7609 -0.6533 0.9351 
vertex 0.9643 -0.4892 1.2499 
endloop
endfacet
facet normal 0.25 -0.94 0.21 
outer loop
vertex 0.9640 -0.3792 2.0000 
vertex 0.8035 -0.5715 1.3359 
vertex 1.1573 -0.3279 2.0000 
endloop
endfacet
facet normal 0.48 -0.87 0.06 
outer loop
vertex 0.8035 -0.5715 1.3359 
vertex 0.9643 -0.4892 1.2499 
vertex 1.1573 -0.3279 2.0000 
endloop
endfacet
facet normal 0.50 0.86 0.12 
outer loop
vertex 0.9643 0.4892 1.2499 
vertex 0.7609 0.6533 0.9351 
vertex 0.8035 0.5715 1.3359 
endloop
endfacet
facet normal 0.74 0.67 0.06 
outer loop
vertex 0.7609 0.6533 0.9351 
vertex 0.6533 0.7609 1.0649 
vertex 0.8035 0.5715 1.3359 
endloop
endfacet
facet normal 0.25 0.96 0.14 
outer loop
vertex 1.1573 0.3279 2.0000 
vertex 0.9643 0.4892 1.2499 
vertex 0.9640 0.3792 2.0000 
endloop
endfacet
facet normal 0.50 0.85 0.13 
outer loop
vertex 0.9643 0.4892 1.2499 
vertex 0.8035 0.5715 1.3359 
vertex 0.9640 0.3792 2.0000 
endloop
endfacet
facet normal 0.00 0.00 1.00 
outer loop
vertex 0.9207 -0.2144 2.0000 
vertex 0.9640 -0.3792 2.0000 
vertex 1.1179 -0.1805 2.0000 
endloop
endfacet
facet normal 0.00 0.00 1.00 
outer loop
vertex 0.9640 -0.3792 2.0000 
vertex 1.1573 -0.3279 2.0000 
vertex 1.1179 -0.1805 2.0000 
endloop
endfacet
facet normal 0.00 0.00 1.00 
outer loop
vertex 0.9000 0.0000 2.0000 
vertex 0.9207 -0.2144 2.0000 
vertex 1.1000 0.0000 2.0000 
endloop
endfacet
facet normal 0.00 0.00 1.00 
outer loop
vertex 0.9207 -0.2144 2.0000 
vertex 1.1179 -0.1805 2.0000 
vertex 1.1000 0.0000 2.0000 
endloop
endfacet
facet normal 0.00 0.00 1.00 
outer loop
vertex 0.9207 0.2144 2.0000 
vertex 0.9000 0.0000 2.0000 
vertex 1.1179 0.1805 2.0000 
endloop
endfacet
facet normal 0.00 0.00 1.00 
outer loop
vertex 0.9000 0.0000 2.0000 
vertex 1.1000 0.0000 2.0000 
vertex 1.1179 0.1805 2.0000 
endloop
endfacet
facet normal 0.00 0.00 1.00 
outer loop
vertex 0.9640 0.3792 2.0000 
vertex 0.9207 0.2144 2.0000 
vertex 1.1573 0.3279 2.0000 
endloop
endfacet
facet normal 0.00 0.00 1.00 
outer loop
vertex 0.9207 0.2144 2.0000 
vertex 1.1179 0.1805 2.0000 
vertex 1.1573 0.3279 2.0000 
endloop
endfacet
facet normal -0.36 0.34 0.87 
outer loop
vertex 0.4239 0.5189 1.0741 
vertex 0.0000 0.0000 1.1000 
vertex 0.6364 0.0000 1.3636 
endloop
endfacet
facet normal -0.65 0.15 0.75 
outer loop
vertex 0.4239 0.5189 1.0741 
vertex 0.6364 0.0000 1.3636 
vertex 0.6947 0.3462 1.3447 
endloop
endfacet
facet normal -0.46 0.46 0.76 
outer loop
vertex 0.6533 0.7609 1.0649 
vertex 0.4239 0.5189 1.0741 
vertex 0.6947 0.3462 1.3447 
endloop
endfacet
facet normal -0.69 0.36 0.63 
outer loop
vertex 0.6533 0.7609 1.0649 
vertex 0.6947 0.3462 1.3447 
vertex 0.8035 0.5715 1.3359 
endloop
endfacet
facet normal -0.91 0.17 0.38 
outer loop
vertex 0.6947 0.3462 1.3447 
vertex 0.6364 0.0000 1.3636 
vertex 0.9000 0.0000 2.0000 
endloop
endfacet
facet normal -0.94 0.09 0.34 
outer loop
vertex 0.6947 0.3462 1.3447 
vertex 0.9000 0.0000 2.0000 
vertex 0.9207 0.2144 2.0000 
endloop
endfacet
facet normal -0.83 0.42 0.37 
outer loop
vertex 0.8035 0.5715 1.3359 
vertex 0.6947 0.3462 1.3447 
vertex 0.9207 0.2144 2.0000 
endloop
endfacet
facet normal -0.92 0.24 0.29 
outer loop
vertex 0.8035 0.5715 1.3359 
vertex 0.9207 0.2144 2.0000 
vertex 0.9640 0.3792 2.0000 
endloop
endfacet
facet normal -0.46 -0.46 0.76 
outer loop
vertex 0.4239 -0.5189 1.0741 
vertex 0.6533 -0.7609 1.0649 
vertex 0.6947 -0.3462 1.3447 
endloop
endfacet
facet normal -0.69 -0.36 0.63 
outer loop
vertex 0.6533 -0.7609 1.0649 
vertex 0.8035 -0.5715 1.3359 
vertex 0.6947 -0.3462 1.3447 
endloop
endfacet
facet normal -0.36 -0.34 0.87 
outer loop
vertex 0.0000 0.0000 1.1000 
vertex 0.4239 -0.5189 1.0741 
vertex 0.6364 0.0000 1.3636 
endloop
endfacet
facet normal -0.65 -0.15 0.75 
outer loop
vertex 0.4239 -0.5189 1.0741 
vertex 0.6947 -0.3462 1.3447 
vertex 0.6364 0.0000 1.3636 
endloop
endfacet
facet normal -0.83 -0.42 0.37 
outer loop
vertex 0.6947 -0.3462 1.3447 
vertex 0.8035 -0.5715 1.3359 
vertex 0.9207 -0.2144 2.0000 
endloop
endfacet
facet normal -0.92 -0.24 0.29 
outer loop
vertex 0.8035 -0.5715 1.3359 
vertex 0.9640 -0.3792 2.0000 
vertex 0.9207 -0.2144 2.0000 
endloop
endfacet
facet normal -0.91 -0.17 0.38 
outer loop
vertex 0.6364 0.0000 1.3636 
vertex 0.6947 -0.3462 1.3447 
vertex 0.9000 0.0000 2.0000 
endloop
endfacet
facet normal -0.94 -0.09 0.34 
outer loop
vertex 0.6947 -0.3462 1.3447 
vertex 0.9207 -0.2144 2.0000 
vertex 0.9000 0.0000 2.0000 
endloop
endfacet
facet normal -0.65 0.13 -0.75 
outer loop
vertex -0.8569 -0.2922 1.2410 
vertex -0.7778 0.0000 1.2222 
vertex -0.5189 -0.4239 0.9259 
endloop
endfacet
facet normal -0.35 0.38 -0.85 
outer loop
vertex -0.7778 0.0000 1.2222 
vertex 0.0000 0.0000 0.9000 
vertex -0.5189 -0.4239 0.9259 
endloop
endfacet
facet normal -0.69 0.35 -0.63 
outer loop
vertex -0.9643 -0.4892 1.2499 
vertex -0.8569 -0.2922 1.2410 
vertex -0.7609 -0.6533 0.9351 
endloop
endfacet
facet normal -0.49 0.49 -0.73 
outer loop
vertex -0.8569 -0.2922 1.2410 
vertex -0.5189 -0.4239 0.9259 
vertex -0.7609 -0.6533 0.9351 
endloop
endfacet
facet normal -0.94 0.09 -0.34 
outer loop
vertex -1.1179 -0.1805 2.0000 
vertex -1.1000 0.0000 2.0000 
vertex -0.8569 -0.2922 1.2410 
endloop
endfacet
facet normal -0.90 0.22 -0.37 
outer loop
vertex -1.1000 0.0000 2.0000 
vertex -0.7778 0.0000 1.2222 
vertex -0.8569 -0.2922 1.2410 
endloop
endfacet
facet normal -0.92 0.25 -0.29 
outer loop
vertex -1.1573 -0.3279 2.0000 
vertex -1.1179 -0.1805 2.0000 
vertex -0.9643 -0.4892 1.2499 
endloop
endfacet
facet normal -0.83 0.44 -0.35 
outer loop
vertex -1.1179 -0.1805 2.0000 
vertex -0.8569 -0.2922 1.2410 
vertex -0.9643 -0.4892 1.2499 
endloop
endfacet
facet normal -0.69 -0.35 -0.63 
outer loop
vertex -0.8569 0.2922 1.2410 
vertex -0.9643 0.4892 1.2499 
vertex -0.7609 0.6533 0.9351 
endloop
endfacet
facet normal -0.49 -0.49 -0.73 
outer loop
vertex -0.8569 0.2922 1.2410 
vertex -0.7609 0.6533 0.9351 
vertex -0.5189 0.4239 0.9259 
endloop
endfacet
facet normal -0.65 -0.13 -0.75 
outer loop
vertex -0.7778 0.0000 1.2222 
vertex -0.8569 0.2922 1.2410 
vertex -0.5189 0.4239 0.9259 
endloop
endfacet
facet normal -0.35 -0.38 -0.85 
outer loop
vertex -0.7778 0.0000 1.2222 
vertex -0.5189 0.4239 0.9259 
vertex 0.0000 0.0000 0.9000 
endloop
endfacet
facet normal -0.92 -0.25 -0.29 
outer loop
vertex -1.1179 0.1805 2.0000 
vertex -1.1573 0.3279 2.0000 
vertex -0.9643 0.4892 1.2499 
endloop
endfacet
facet normal -0.83 -0.44 -0.35 
outer loop
vertex -1.1179 0.1805 2.0000 
vertex -0.9643 0.4892 1.2499 
vertex -0.8569 0.2922 1.2410 
endloop
endfacet
facet normal -0.94 -0.09 -0.34 
outer loop
vertex -1.1000 0.0000 2.0000 
vertex -1.1179 0.1805 2.0000 
vertex -0.8569 0.2922 1.2410 
endloop
endfacet
facet normal -0.90 -0.22 -0.37 
outer loop
vertex -1.1000 0.0000 2.0000 
vertex -0.8569 0.2922 1.2410 
vertex -0.7778 0.0000 1.2222 
endloop
endfacet
facet normal -0.55 0.80 0.26 
outer loop
vertex -0.8035 0.5715 1.3359 
vertex -0.6533 0.7609 1.0649 
vertex -0.9643 0.4892 1.2499 
endloop
endfacet
facet normal -0.67 0.74 -0.05 
outer loop
vertex -0.6533 0.7609 1.0649 
vertex -0.7609 0.6533 0.9351 
vertex -0.9643 0.4892 1.2499 
endloop
endfacet
facet normal -0.25 0.94 0.21 
outer loop
vertex -0.9640 0.3792 2.0000 
vertex -0.8035 0.5715 1.3359 
vertex -1.1573 0.3279 2.0000 
endloop
endfacet
facet normal -0.48 0.87 0.06 
outer loop
vertex -0.8035 0.5715 1.3359 
vertex -0.9643 0.4892 1.2499 
vertex -1.1573 0.3279 2.0000 
endloop
endfacet
facet normal -0.50 -0.86 0.12 
outer loop
vertex -0.9643 -0.4892 1.2499 
vertex -0.7609 -0.6533 0.9351 
vertex -0.8035 -0.5715 1.3359 
endloop
endfacet
facet normal -0.74 -0.67 0.06 
outer loop
vertex -0.7609 -0.6533 0.9351 
vertex -0.6533 -0.7609 1.0649 
vertex -0.8035 -0.5715 1.3359 
endloop
endfacet
facet normal -0.25 -0.96 0.14 
outer loop
vertex -1.1573 -0.3279 2.0000 
vertex -0.9643 -0.4892 1.2499 
vertex -0.9640 -0.3792 2.0000 
endloop
endfacet
facet normal -0.50 -0.85 0.13 
outer loop
vertex -0.9643 -0.4892 1.2499 
vertex -0.8035 -0.5715 1.3359 
vertex -0.9640 -0.3792 2.0000 
endloop
endfacet
facet normal 0.00 0.00 1.00 
outer loop
vertex -0.9207 0.2144 2.0000 
vertex -0.9640 0.3792 2.0000 
vertex -1.1179 0.1805 2.0000 
endloop
endfacet
facet normal 0.00 0.00 1.00 
outer loop
vertex -0.9640 0.3792 2.0000 
vertex -1.1573 0.3279 2.0000 
vertex -1.1179 0.1805 2.0000 
endloop
endfacet
facet normal 0.00 0.00 1.00 
outer loop
vertex -0.9000 0.0000 2.0000 
vertex -0.9207 0.2144 2.0000 
vertex -1.1000 0.0000 2.0000 
endloop
endfacet
facet normal 0.00 0.00 1.00 
outer loop
vertex -0.9207 0.2144 2.0000 
vertex -1.1179 0.1805 2.0000 
vertex -1.1000 0.0000 2.0000 
endloop
endfacet
facet normal 0.00 0.00 1.00 
outer loop
vertex -0.9207 -0.2144 2.0000 
vertex -0.9000 0.0000 2.0000 
vertex -1.1179 -0.1805 2.0000 
endloop
endfacet
facet normal 0.00 0.00 1.00 
outer loop
vertex -0.9000 0.0000 2.0000 
vertex -1.1000 0.0000 2.0000 
vertex -1.1179 -0.1805 2.0000 
endloop
endfacet
facet normal 0.00 0.00 1.00 
outer loop
vertex -0.9640 -0.3792 2.0000 
vertex -0.9207 -0.2144 2.0000 
vertex -1.1573 -0.3279 2.0000 
endloop
endfacet
facet normal 0.00 0.00 1.00 
outer loop
vertex -0.9207 -0.2144 2.0000 
vertex -1.1179 -0.1805 2.0000 
vertex -1.1573 -0.3279 2.0000 
endloop
endfacet
facet normal 0.36 -0.34 0.87 
outer loop
vertex -0.4239 -0.5189 1.0741 
vertex 0.0000 0.0000 1.1000 
vertex -0.6364 0.0000 1.3636 
endloop
endfacet
facet normal 0.65 -0.15 0.75 
outer loop
vertex -0.4239 -0.5189 1.0741 
vertex -0.6364 0.0000 1.3636 
vertex -0.6947 -0.3462 1.3447 
endloop
endfacet
facet normal 0.46 -0.46 0.76 
outer loop
vertex -0.6533 -0.7609 1.0649 
vertex -0.4239 -0.5189 1.0741 
vertex -0.6947 -0.3462 1.3447 
endloop
endfacet
facet normal 0.69 -0.36 0.63 
outer loop
vertex -0.6533 -0.7609 1.0649 
vertex -0.6947 -0.3462 1.3447 
vertex -0.8035 -0.5715 1.3359 
endloop
endfacet
facet normal 0.91 -0.17 0.38 
outer loop
vertex -0.6947 -0.3462 1.3447 
vertex -0.6364 0.0000 1.3636 
vertex -0.9000 0.0000 2.0000 
endloop
endfacet
facet normal 0.94 -0.09 0.34 
outer loop
vertex -0.6947 -0.3462 1.3447 
vertex -0.9000 0.0000 2.0000 
vertex -0.9207 -0.2144 2.0000 
endloop
endfacet
facet normal 0.83 -0.42 0.37 
outer loop
vertex -0.8035 -0.5715 1.3359 
vertex -0.6947 -0.3462 1.3447 
vertex -0.9207 -0.2144 2.0000 
endloop
endfacet
facet normal 0.92 -0.24 0.29 
outer loop
vertex -0.8035 -0.5715 1.3359 
vertex -0.9207 -0.2144 2.0000 
vertex -0.9640 -0.3792 2.0000 
endloop
endfacet
facet normal 0.46 0.46 0.76 
outer loop
vertex -0.4239 0.5189 1.0741 
vertex -0.6533 0.7609 1.0649 
vertex -0.6947 0.3462 1.3447 
endloop
endfacet
facet normal 0.69 0.36 0.63 
outer loop
vertex -0.6533 0.7609 1.0649 
vertex -0.8035 0.5715 1.3359 
vertex -0.6947 0.3462 1.3447 
endloop
endfacet
facet normal 0.36 0.34 0.87 
outer loop
vertex 0.0000 0.0000 1.1000 
vertex -0.4239 0.5189 1.0741 
vertex -0.6364 0.0000 1.3636 
endloop
endfacet
facet normal 0.65 0.15 0.75 
outer loop
vertex -0.4239 0.5189 1.0741 
vertex -0.6947 0.3462 1.3447 
vertex -0.6364 0.0000 1.3636 
endloop
endfacet
facet normal 0.83 0.42 0.37 
outer loop
vertex -0.6947 0.3462 1.3447 
vertex -0.8035 0.5715 1.3359 
vertex -0.9207 0.2144 2.0000 
endloop
endfacet
facet normal 0.92 0.24 0.29 
outer loop
vertex -0.8035 0.5715 1.3359 
vertex -0.9640 0.3792 2.0000 
vertex -0.9207 0.2144 2.0000 
endloop
endfacet
facet normal 0.91 0.17 0.38 
outer loop
vertex -0.6364 0.0000 1.3636 
vertex -0.6947 0.3462 1.3447 
vertex -0.9000 0.0000 2.0000 
endloop
endfacet
facet normal 0.94 0.09 0.34 
outer loop
vertex -0.6947 0.3462 1.3447 
vertex -0.9207 0.2144 2.0000 
vertex -0.9000 0.0000 2.0000 
endloop
endfacet
endsolid 
